<?xml version="1.0" encoding="utf-8"?>
<!-- Generator: Adobe Illustrator 24.0.3, SVG Export Plug-In . SVG Version: 6.00 Build 0)  -->
<svg version="1.1" id="Layer_1" xmlns="http://www.w3.org/2000/svg" xmlns:xlink="http://www.w3.org/1999/xlink" x="0px" y="0px"
	 viewBox="0 0 25 25" style="enable-background:new 0 0 25 25;" xml:space="preserve">
<style type="text/css">
	.st0{fill:none;stroke:#253D4E;}
	.st1{fill-rule:evenodd;clip-rule:evenodd;fill:#253D4E;}
</style>
<path class="st0" d="M1.9,0.5h21.2c0.8,0,1.4,0.6,1.4,1.4v21.2c0,0.8-0.6,1.4-1.4,1.4H1.9c-0.8,0-1.4-0.6-1.4-1.4V1.9
	C0.5,1.1,1.1,0.5,1.9,0.5z"/>
<g>
	<g>
		<path class="st1" d="M14.8,7.7c0.5,0,0.9,0,1.4,0c0.1,0,0.1,0,0.2,0V5.3c-0.2,0-0.5-0.1-0.7-0.1c-0.5,0-0.9,0-1.4,0
			c-0.7,0-1.4,0.2-2,0.6c-0.7,0.5-1,1.2-1.2,2C11,8.1,11,8.5,11,8.8c0,0.5,0,1.1,0,1.6v0.2H8.7v2.6h2.2v6.6h2.7v-6.6h2.2
			c0.1-0.9,0.2-1.7,0.3-2.6c-0.2,0-0.3,0-0.5,0c-0.6,0-2.1,0-2.1,0s0-1.3,0-1.9C13.7,7.9,14.1,7.7,14.8,7.7z"/>
	</g>
</g>
</svg>
