<?xml version="1.0" encoding="utf-8"?>
<!-- Generator: Adobe Illustrator 24.0.3, SVG Export Plug-In . SVG Version: 6.00 Build 0)  -->
<svg version="1.1" id="Layer_1" xmlns="http://www.w3.org/2000/svg" xmlns:xlink="http://www.w3.org/1999/xlink" x="0px" y="0px"
	 viewBox="0 0 25 25" style="enable-background:new 0 0 25 25;" xml:space="preserve">
<style type="text/css">
	.st0{fill:none;stroke:#253D4E;}
	.st1{fill-rule:evenodd;clip-rule:evenodd;fill:#253D4E;}
</style>
<path class="st0" d="M1.9,0.5h21.2c0.8,0,1.4,0.6,1.4,1.4v21.2c0,0.8-0.6,1.4-1.4,1.4H1.9c-0.8,0-1.4-0.6-1.4-1.4V1.9
	C0.5,1.1,1.1,0.5,1.9,0.5z"/>
<g>
	<g>
		<g>
			<path class="st1" d="M5.5,19.5c0.1-0.3,0.1-0.6,0.2-0.8C6,17.8,6.2,17,6.4,16.1c0-0.1,0-0.3,0-0.4c-2.1-4.1,0.1-9,4.5-10
				c4.1-1,7.7,1.8,8.4,5.5c0.7,3.8-1.8,7.5-5.6,8.1c-1.5,0.3-3,0-4.3-0.6c-0.1-0.1-0.3-0.1-0.4,0C7.1,19.1,5.9,19.4,5.5,19.5z
				 M7.2,17.9c0.7-0.2,1.3-0.3,2-0.5c0.2,0,0.3,0,0.5,0.1c1.2,0.7,2.5,0.9,3.8,0.7c3.1-0.5,5.3-3.4,4.8-6.6s-3.5-5.4-6.8-4.8
				c-3.9,0.7-6,5.1-4,8.5c0.2,0.4,0.3,0.7,0.1,1.1C7.4,16.8,7.3,17.3,7.2,17.9z"/>
			<path class="st1" d="M14.3,15.8c-1.4,0-3.5-1.1-5-3.7c-0.5-0.9-0.4-2,0.3-2.7c0.3-0.2,0.6-0.2,0.9-0.1c0.1,0,0.2,0.1,0.2,0.2
				c0.2,0.4,0.4,0.9,0.6,1.4c0.1,0.2-0.1,0.5-0.4,0.9c-0.1,0.1-0.1,0.2,0,0.4c0.6,1,1.4,1.7,2.4,2.1c0.2,0.1,0.3,0,0.4-0.1
				c0.6-0.7,0.6-0.9,0.9-0.7c1.4,0.7,1.5,0.7,1.5,0.9C16.1,15.4,15,15.8,14.3,15.8z"/>
		</g>
	</g>
</g>
</svg>
