<svg width="25" height="25" viewBox="0 0 25 25" fill="none" xmlns="http://www.w3.org/2000/svg">
<rect x="0.5" y="0.5" width="24" height="24" rx="1.5" fill="#0073AF" stroke="#0073AF"/>
<path d="M13.05 11.775C13.37 11.275 13.9425 10.5763 15.2237 10.5763C16.81 10.5763 18 11.6125 18 13.8412V18H15.5887V14.125C15.5887 13.15 15.24 12.4837 14.3675 12.4837C13.7012 12.4837 13.305 12.9325 13.13 13.3663C13.068 13.5556 13.0409 13.7547 13.05 13.9538V18H10.6375C10.6375 18 10.67 11.4275 10.6375 10.75H13.05V11.775ZM8.11497 7.25C7.28997 7.25 6.74997 7.79125 6.74997 8.5C6.74997 9.20875 7.27372 9.75 8.08247 9.75H8.09872C8.93997 9.75 9.46372 9.1925 9.46372 8.5C9.46372 7.8075 8.93997 7.25 8.11497 7.25ZM6.89372 18H9.30497V10.75H6.89372V18Z" fill="#F8F8F8"/>
</svg>
