<svg width="25" height="25" viewBox="0 0 25 25" fill="none" xmlns="http://www.w3.org/2000/svg">
<rect x="0.5" y="0.5" width="24" height="24" rx="1.5" fill="#D7143A" stroke="#D7143A"/>
<path d="M17.6286 5.74208C16.4584 4.61871 14.839 4 13.0687 4C10.3645 4 8.70126 5.10849 7.78219 6.03836C6.64949 7.1843 6 8.70591 6 10.2131C6 12.1054 6.79154 13.5579 8.11705 14.0982C8.20603 14.1347 8.29558 14.1531 8.38337 14.1531C8.66301 14.1531 8.88458 13.9701 8.96134 13.6766C9.0061 13.5082 9.10976 13.0928 9.15485 12.9125C9.25134 12.5564 9.17338 12.3851 8.96294 12.1371C8.57957 11.6835 8.40104 11.1471 8.40104 10.449C8.40104 8.37537 9.94506 6.1716 12.8068 6.1716C15.0774 6.1716 16.4879 7.46215 16.4879 9.53955C16.4879 10.8505 16.2055 12.0645 15.6926 12.9582C15.3362 13.5792 14.7095 14.3194 13.7474 14.3194C13.3314 14.3194 12.9576 14.1485 12.7218 13.8505C12.4991 13.5688 12.4256 13.205 12.5152 12.8258C12.6164 12.3973 12.7545 11.9504 12.888 11.5184C13.1317 10.7293 13.362 9.98395 13.362 9.38931C13.362 8.37222 12.7367 7.6888 11.8061 7.6888C10.6236 7.6888 9.6971 8.88989 9.6971 10.4232C9.6971 11.1752 9.89695 11.7377 9.98743 11.9536C9.83844 12.5848 8.95304 16.3375 8.7851 17.0451C8.68798 17.4582 8.103 20.7209 9.07125 20.981C10.1591 21.2733 11.1315 18.0957 11.2305 17.7366C11.3107 17.4446 11.5914 16.3404 11.7634 15.6616C12.2886 16.1674 13.1342 16.5094 13.957 16.5094C15.5081 16.5094 16.903 15.8114 17.8848 14.5442C18.8371 13.315 19.3615 11.6017 19.3615 9.72031C19.3615 8.24947 18.7298 6.79941 17.6286 5.74208Z" fill="#FBFBFB"/>
</svg>
