<svg width="25" height="25" viewBox="0 0 25 25" fill="none" xmlns="http://www.w3.org/2000/svg">
<rect x="0.5" y="0.5" width="24" height="24" rx="1.5" fill="#F29D00" stroke="#F29D00"/>
<path d="M10.5455 17.2273C10.5455 17.7197 10.3731 18.1383 10.0284 18.483C9.68371 18.8277 9.26515 19 8.77273 19C8.2803 19 7.86174 18.8277 7.51705 18.483C7.17235 18.1383 7 17.7197 7 17.2273C7 16.7348 7.17235 16.3163 7.51705 15.9716C7.86174 15.6269 8.2803 15.4545 8.77273 15.4545C9.26515 15.4545 9.68371 15.6269 10.0284 15.9716C10.3731 16.3163 10.5455 16.7348 10.5455 17.2273ZM15.2727 18.3629C15.285 18.5353 15.2327 18.683 15.1158 18.8061C15.005 18.9354 14.8603 19 14.6818 19H13.4354C13.2815 19 13.1491 18.9492 13.0384 18.8477C12.9276 18.7461 12.866 18.6184 12.8537 18.4645C12.7183 17.0549 12.1504 15.85 11.1502 14.8498C10.15 13.8496 8.94508 13.2817 7.53551 13.1463C7.38163 13.134 7.25391 13.0724 7.15234 12.9616C7.05078 12.8509 7 12.7185 7 12.5646V11.3182C7 11.1397 7.06463 10.995 7.19389 10.8842C7.29853 10.7796 7.43087 10.7273 7.59091 10.7273H7.63707C8.62192 10.8073 9.56368 11.055 10.4624 11.4705C11.361 11.886 12.1581 12.4446 12.8537 13.1463C13.5554 13.8419 14.114 14.639 14.5295 15.5376C14.945 16.4363 15.1927 17.3781 15.2727 18.3629ZM20 18.3814C20.0123 18.5476 19.9569 18.6922 19.8338 18.8153C19.723 18.9384 19.5814 19 19.4091 19H18.0888C17.9287 19 17.7918 18.9461 17.6779 18.8384C17.564 18.7307 17.504 18.5999 17.4979 18.446C17.424 17.1226 17.1132 15.8654 16.5653 14.6744C16.0175 13.4833 15.305 12.4492 14.4279 11.5721C13.5508 10.695 12.5167 9.98248 11.3256 9.43466C10.1346 8.88684 8.87737 8.57292 7.55398 8.4929C7.40009 8.48674 7.26929 8.42673 7.16158 8.31286C7.05386 8.19898 7 8.0651 7 7.91122V6.59091C7 6.41856 7.06155 6.27699 7.18466 6.16619C7.29545 6.0554 7.43087 6 7.59091 6H7.61861C9.2313 6.08002 10.7747 6.44934 12.2489 7.10795C13.7231 7.76657 15.0327 8.6714 16.1776 9.82244C17.3286 10.9673 18.2334 12.2769 18.892 13.7511C19.5507 15.2253 19.92 16.7687 20 18.3814Z" fill="#FBFBFB"/>
</svg>
