<svg width="25" height="25" viewBox="0 0 25 25" fill="none" xmlns="http://www.w3.org/2000/svg">
<rect x="0.5" y="0.5" width="24" height="24" rx="1.5" fill="#FF0000" stroke="#FF0000"/>
<path d="M16.6347 8.25H8.36528C8.08744 8.24982 7.8123 8.3024 7.55558 8.40471C7.29886 8.50703 7.0656 8.65708 6.86914 8.84629C6.67269 9.03549 6.51688 9.26014 6.41064 9.50738C6.30441 9.75462 6.24982 10.0196 6.25 10.2872V14.5461C6.24982 14.8137 6.30441 15.0787 6.41064 15.326C6.51688 15.5732 6.67269 15.7978 6.86914 15.987C7.0656 16.1763 7.29886 16.3263 7.55558 16.4286C7.8123 16.5309 8.08744 16.5835 8.36528 16.5833H16.6347C16.9126 16.5835 17.1877 16.5309 17.4444 16.4286C17.7011 16.3263 17.9344 16.1763 18.1309 15.987C18.3273 15.7978 18.4831 15.5732 18.5894 15.326C18.6956 15.0787 18.7502 14.8137 18.75 14.5461V10.2872C18.7502 10.0196 18.6956 9.75462 18.5894 9.50738C18.4831 9.26014 18.3273 9.03549 18.1309 8.84629C17.9344 8.65708 17.7011 8.50703 17.4444 8.40471C17.1877 8.3024 16.9126 8.24982 16.6347 8.25ZM13.0236 13.345L11.4389 14.1301C11.4093 14.1433 11.3767 14.1491 11.3442 14.1471C11.3116 14.145 11.2801 14.1352 11.2525 14.1184C11.2249 14.1017 11.2021 14.0786 11.1862 14.0512C11.1702 14.0238 11.1616 13.993 11.1611 13.9616V10.8717C11.1616 10.8403 11.1702 10.8095 11.1862 10.7821C11.2021 10.7548 11.2249 10.7316 11.2525 10.7149C11.2801 10.6982 11.3116 10.6883 11.3442 10.6863C11.3767 10.6842 11.4093 10.69 11.4389 10.7032L13.0292 11.4884L14.5653 12.2495C14.5974 12.2651 14.6244 12.289 14.6433 12.3185C14.6622 12.348 14.6722 12.382 14.6722 12.4167C14.6722 12.4513 14.6622 12.4853 14.6433 12.5148C14.6244 12.5444 14.5974 12.5683 14.5653 12.5839L13.0236 13.345Z" fill="#F8F8F8"/>
</svg>
