<svg width="21" height="15" viewBox="0 0 21 15" fill="none" xmlns="http://www.w3.org/2000/svg">
<path fill-rule="evenodd" clip-rule="evenodd" d="M1.04457 2.21328e-05C0.467997 -0.00372184 0 0.468019 0 1.04459C0 1.62116 0.467997 2.08916 1.04457 2.08916H11.0747C11.6513 2.08916 12.1193 1.62116 12.1193 1.04459C12.1193 0.468019 11.6513 2.21328e-05 11.0747 2.21328e-05H1.04457ZM0 7.50003C0 6.92346 0.467997 6.45172 1.04831 6.45546H19.4312C20.0078 6.45546 20.4758 6.92346 20.4758 7.50003C20.4758 8.0766 20.0078 8.5446 19.4312 8.5446H1.04457C0.467997 8.5446 0 8.0766 0 7.50003ZM0 13.9554C0 13.3788 0.467997 12.9071 1.04831 12.9108H16.4997C17.0763 12.9108 17.5443 13.3788 17.5443 13.9554C17.5443 14.532 17.0763 15 16.4997 15H1.04457C0.467997 15 0 14.532 0 13.9554Z" fill="white"/>
</svg>
