<?xml version="1.0" encoding="utf-8"?>
<!-- Generator: Adobe Illustrator 24.0.3, SVG Export Plug-In . SVG Version: 6.00 Build 0)  -->
<svg version="1.1" id="Layer_1" xmlns="http://www.w3.org/2000/svg" xmlns:xlink="http://www.w3.org/1999/xlink" x="0px" y="0px"
	 viewBox="0 0 25 25" style="enable-background:new 0 0 25 25;" xml:space="preserve">
<style type="text/css">
	.st0{fill:none;stroke:#253D4E;}
	.st1{fill:#253D4E;}
</style>
<path class="st0" d="M1.9,0.5h21.2c0.8,0,1.4,0.6,1.4,1.4v21.2c0,0.8-0.6,1.4-1.4,1.4H1.9c-0.8,0-1.4-0.6-1.4-1.4V1.9
	C0.5,1.1,1.1,0.5,1.9,0.5z"/>
<g>
	<g>
		<path class="st1" d="M19.4,9c-0.1-0.9-0.5-1.8-1.1-2.4c-0.7-0.7-1.6-1-2.6-1.1c-1.7-0.1-5.6-0.1-7,0.1c-1.6,0.3-2.6,1.2-3,2.7
			C5.4,9.5,5.4,15,5.6,16.2c0.3,1.6,1.2,2.7,2.8,3.1c1.1,0.3,6.6,0.3,7.8,0.1c1.6-0.3,2.7-1.2,3.1-2.8C19.7,15.3,19.6,10.1,19.4,9z
			 M18.1,16c-0.2,1.2-1,2-2.2,2.1c-1.1,0.1-6.2,0.2-7.3-0.1c-1-0.3-1.6-1-1.8-2c-0.2-1-0.2-5.8,0-7.1c0.2-1.2,1-2,2.2-2.1
			c1.3-0.1,5.8-0.2,7,0s2,1,2.1,2.3C18.3,10.3,18.3,14.8,18.1,16z M12.5,8.9c-2,0-3.6,1.6-3.6,3.6s1.6,3.6,3.6,3.6s3.6-1.6,3.6-3.6
			S14.5,8.9,12.5,8.9z M12.5,14.8c-1.3,0-2.3-1.1-2.3-2.4s1.1-2.3,2.4-2.3s2.3,1.1,2.3,2.4C14.8,13.8,13.8,14.9,12.5,14.8z
			 M17.1,8.7c0,0.5-0.4,0.8-0.8,0.8c-0.5,0-0.8-0.4-0.8-0.8c0-0.5,0.4-0.8,0.8-0.8C16.7,7.9,17.1,8.3,17.1,8.7z"/>
		<path class="st1" d="M19.4,9c-0.1-0.9-0.5-1.8-1.1-2.4c-0.7-0.7-1.6-1-2.6-1.1c-1.7-0.1-5.6-0.1-7,0.1c-1.6,0.3-2.6,1.2-3,2.7
			C5.4,9.5,5.4,15,5.6,16.2c0.3,1.6,1.2,2.7,2.8,3.1c1.1,0.3,6.6,0.3,7.8,0.1c1.6-0.3,2.7-1.2,3.1-2.8C19.7,15.3,19.6,10.1,19.4,9z
			 M18.1,16c-0.2,1.2-1,2-2.2,2.1c-1.1,0.1-6.2,0.2-7.3-0.1c-1-0.3-1.6-1-1.8-2c-0.2-1-0.2-5.8,0-7.1c0.2-1.2,1-2,2.2-2.1
			c1.3-0.1,5.8-0.2,7,0s2,1,2.1,2.3C18.3,10.3,18.3,14.8,18.1,16z M12.5,8.9c-2,0-3.6,1.6-3.6,3.6s1.6,3.6,3.6,3.6s3.6-1.6,3.6-3.6
			S14.5,8.9,12.5,8.9z M12.5,14.8c-1.3,0-2.3-1.1-2.3-2.4s1.1-2.3,2.4-2.3s2.3,1.1,2.3,2.4C14.8,13.8,13.8,14.9,12.5,14.8z
			 M17.1,8.7c0,0.5-0.4,0.8-0.8,0.8c-0.5,0-0.8-0.4-0.8-0.8c0-0.5,0.4-0.8,0.8-0.8C16.7,7.9,17.1,8.3,17.1,8.7z"/>
	</g>
</g>
</svg>
