<svg width="25" height="25" viewBox="0 0 25 25" fill="none" xmlns="http://www.w3.org/2000/svg">
<rect width="25" height="25" rx="2" fill="url(#paint0_linear_1596_9039)"/>
<path d="M15.3438 7H9.40625C8.70197 7.00066 8.02673 7.28073 7.52873 7.77873C7.03073 8.27673 6.75066 8.95197 6.75 9.65625V15.5938C6.75066 16.298 7.03073 16.9733 7.52873 17.4713C8.02673 17.9693 8.70197 18.2493 9.40625 18.25H15.3438C16.048 18.2493 16.7233 17.9693 17.2213 17.4713C17.7193 16.9733 17.9993 16.298 18 15.5938V9.65625C17.9993 8.95197 17.7193 8.27673 17.2213 7.77873C16.7233 7.28073 16.048 7.00066 15.3438 7ZM14.2688 14.5162C13.8301 14.9542 13.2531 15.2264 12.6362 15.2865C12.0193 15.3467 11.4006 15.191 10.8856 14.8461C10.3706 14.5012 9.99115 13.9883 9.81193 13.395C9.6327 12.8016 9.6648 12.1645 9.90274 11.5921C10.1407 11.0198 10.5697 10.5476 11.1168 10.2562C11.6639 9.96479 12.295 9.8721 12.9028 9.99393C13.5105 10.1158 14.0572 10.4446 14.4497 10.9244C14.8421 11.4041 15.0561 12.0052 15.055 12.625C15.0546 12.9764 14.985 13.3243 14.8501 13.6489C14.7151 13.9734 14.5176 14.2681 14.2688 14.5162ZM16.3625 10.0425C16.2063 10.1982 16.0008 10.2949 15.7812 10.3161C15.5616 10.3372 15.3415 10.2814 15.1585 10.1583C14.9754 10.0352 14.8408 9.85236 14.7775 9.64101C14.7143 9.42967 14.7263 9.20292 14.8117 8.99949C14.897 8.79606 15.0503 8.62855 15.2454 8.52558C15.4405 8.4226 15.6653 8.39054 15.8814 8.43486C16.0975 8.47919 16.2915 8.59715 16.4303 8.76861C16.5691 8.94007 16.6441 9.1544 16.6425 9.375C16.641 9.62576 16.5404 9.86575 16.3625 10.0425Z" fill="#F8F8F8"/>
<defs>
<linearGradient id="paint0_linear_1596_9039" x1="23.5" y1="24" x2="2" y2="2" gradientUnits="userSpaceOnUse">
<stop stop-color="#FEDA75"/>
<stop offset="0.301522" stop-color="#FA7E1E"/>
<stop offset="0.557954" stop-color="#D62976"/>
<stop offset="0.766801" stop-color="#962FBF"/>
<stop offset="1" stop-color="#4F5BD5"/>
</linearGradient>
</defs>
</svg>
