<svg width="25" height="25" viewBox="0 0 25 25" fill="none" xmlns="http://www.w3.org/2000/svg">
<rect x="0.5" y="0.5" width="24" height="24" rx="1.5" fill="#00ACEE" stroke="#00ACEE"/>
<path d="M19.25 8.32195C18.7352 8.54943 18.1894 8.69876 17.6305 8.76501C18.2188 8.41292 18.6591 7.85913 18.8696 7.20667C18.3153 7.5348 17.7093 7.76625 17.0775 7.89112C16.6905 7.47867 16.1886 7.19201 15.6367 7.06832C15.0849 6.94463 14.5086 6.98961 13.9826 7.19743C13.4566 7.40525 13.0053 7.76632 12.687 8.23381C12.3687 8.7013 12.1983 9.25363 12.1977 9.81917C12.1979 10.0356 12.2225 10.2514 12.2711 10.4624C11.151 10.405 10.0554 10.1131 9.0553 9.60541C8.05521 9.09773 7.1729 8.38565 6.46552 7.51528C6.10461 8.13578 5.99346 8.87039 6.15464 9.56989C6.31582 10.2694 6.73725 10.8813 7.3333 11.2813C6.8856 11.2653 6.44799 11.1438 6.05608 10.9268V10.962C6.0565 11.6131 6.28198 12.2441 6.69433 12.748C7.10668 13.252 7.68054 13.5979 8.31872 13.7272C8.0762 13.7931 7.826 13.8265 7.57469 13.8265C7.39672 13.8263 7.21918 13.809 7.04455 13.7746C7.22452 14.3344 7.57476 14.824 8.0464 15.1751C8.51803 15.5262 9.08752 15.7213 9.67539 15.7332C8.67622 16.5171 7.44218 16.9417 6.17219 16.9386C5.94759 16.9382 5.72317 16.9255 5.49997 16.9004C6.78944 17.7297 8.29049 18.1699 9.82358 18.1685C15.018 18.1685 17.849 13.8708 17.849 10.1446L17.8398 9.77945C18.3939 9.3826 18.8716 8.88882 19.25 8.32195Z" fill="#F8F8F8"/>
</svg>
